<?xml version="1.0" standalone="no"?>
<!DOCTYPE svg PUBLIC "-//W3C//DTD SVG 20010904//EN"
 "http://www.w3.org/TR/2001/REC-SVG-20010904/DTD/svg10.dtd">
<svg version="1.0" xmlns="http://www.w3.org/2000/svg"
 width="836.134396pt" height="778.690637pt" viewBox="0 0 836.134396 778.690637"
 preserveAspectRatio="xMidYMid meet">
<metadata>
Created by potrace 1.12, written by Peter Selinger 2001-2015
</metadata>
<g transform="translate(-96.209151,816.448263) scale(0.100000,-0.100000)"
fill="#000000" stroke="none">
<path d="M2810 8156 c-14 -9 -32 -18 -40 -22 -8 -4 -44 -37 -80 -73 -55 -57
-68 -76 -84 -131 -10 -36 -20 -96 -23 -135 -3 -42 -11 -77 -19 -86 -12 -14
-14 -34 -8 -102 6 -82 9 -88 45 -127 36 -39 39 -46 39 -101 0 -67 -9 -90 -53
-133 -16 -16 -40 -47 -53 -68 -25 -40 -77 -71 -153 -93 -76 -22 -163 -54 -177
-66 -7 -6 -36 -17 -63 -25 -28 -8 -75 -21 -103 -29 -29 -8 -66 -21 -83 -29
-16 -8 -43 -18 -58 -21 -16 -3 -47 -26 -70 -52 -49 -54 -79 -82 -167 -160 -37
-32 -84 -78 -105 -103 -22 -24 -80 -85 -130 -135 -49 -50 -112 -117 -140 -150
-27 -33 -67 -77 -87 -100 -21 -22 -38 -43 -38 -47 0 -3 -19 -30 -42 -59 -99
-126 -158 -261 -137 -314 13 -34 10 -78 -7 -96 -15 -16 -15 -26 -5 -80 21
-106 36 -124 75 -94 13 10 43 15 82 15 71 0 67 4 157 -135 28 -44 56 -85 62
-91 5 -7 34 -43 63 -81 86 -111 321 -336 423 -406 48 -32 63 -37 132 -38 31
-1 57 -4 58 -8 0 -3 2 -152 3 -331 3 -297 5 -330 23 -385 11 -33 24 -94 28
-135 4 -41 13 -90 22 -110 9 -22 18 -91 23 -185 5 -82 15 -170 23 -195 8 -25
19 -72 25 -105 20 -113 34 -170 54 -223 11 -30 23 -74 26 -98 4 -40 2 -44 -21
-53 -40 -16 -50 -43 -37 -106 10 -48 9 -58 -9 -94 -12 -22 -21 -50 -21 -61 0
-11 -8 -37 -19 -58 -10 -20 -22 -66 -25 -102 -4 -36 -14 -88 -22 -116 -7 -29
-18 -96 -24 -149 -6 -53 -13 -101 -16 -107 -3 -5 -10 -103 -15 -218 -6 -144
-14 -234 -28 -292 -32 -135 -37 -214 -24 -324 6 -54 12 -136 12 -181 1 -74 4
-88 32 -135 34 -57 34 -62 3 -225 -9 -49 4 -101 30 -118 13 -9 44 -17 70 -19
38 -3 53 -10 74 -35 15 -17 52 -40 82 -52 72 -29 247 -30 366 -4 163 36 154
33 154 65 0 17 -4 30 -8 30 -9 0 -42 70 -42 88 0 7 50 12 148 15 81 2 167 10
192 17 146 41 158 54 113 124 -32 50 -93 81 -178 92 -51 7 -117 38 -170 82
-27 22 -85 121 -85 145 0 6 -7 18 -15 26 -8 9 -16 42 -18 73 -2 32 -12 68 -21
82 -20 31 -20 50 -1 80 8 12 17 45 20 72 3 27 12 87 20 134 26 161 36 277 31
361 -3 46 -8 182 -11 301 -6 212 -6 217 14 230 19 11 21 23 21 108 1 53 7 112
14 133 10 26 11 49 5 77 -7 30 -6 46 5 63 7 12 19 52 26 89 7 37 18 73 26 79
8 6 14 17 14 24 0 7 6 18 14 24 8 7 18 27 21 44 4 18 16 51 26 74 11 23 19 51
19 63 0 12 8 42 19 68 22 56 49 160 67 260 7 40 17 80 22 90 5 9 15 48 21 86
7 38 17 78 22 88 5 9 14 73 19 141 5 68 15 137 21 153 7 18 14 129 18 288 6
245 7 259 26 270 11 6 23 15 26 20 13 18 17 -12 7 -53 -8 -31 -8 -49 1 -67 6
-14 11 -39 11 -57 0 -18 7 -51 15 -75 12 -34 13 -59 5 -130 -6 -54 -6 -102 0
-127 6 -27 4 -81 -5 -165 -40 -347 -48 -507 -50 -990 -3 -541 6 -860 29 -1025
8 -60 20 -220 26 -355 12 -263 35 -532 51 -592 6 -25 6 -44 -2 -62 -10 -20 -9
-30 5 -50 9 -14 16 -31 16 -37 0 -7 10 -32 22 -56 18 -36 20 -47 10 -61 -7 -9
-17 -30 -23 -45 -6 -15 -27 -36 -46 -46 l-36 -18 29 -31 c25 -27 39 -33 104
-41 124 -16 204 -32 216 -42 9 -7 10 -19 2 -42 -22 -71 -26 -101 -17 -123 l9
-24 180 0 c179 0 181 0 205 25 14 13 25 34 25 46 0 12 8 31 18 42 14 15 17 38
17 113 0 68 4 97 13 103 8 4 18 39 22 77 12 94 12 658 0 824 -21 279 -24 444
-9 470 11 20 14 90 16 327 1 216 6 330 17 395 9 51 20 140 26 198 7 57 16 112
21 122 5 9 12 45 15 80 3 35 15 97 26 138 10 41 24 92 29 113 6 21 14 35 19
32 5 -3 11 4 15 15 8 26 25 26 25 -1 0 -13 -4 -18 -12 -13 -10 6 -10 5 -1 -7
8 -10 14 -85 18 -229 11 -419 15 -496 30 -580 8 -47 19 -120 25 -162 5 -43 14
-85 19 -95 5 -10 17 -53 27 -95 18 -85 12 -121 -30 -159 -26 -25 -28 -110 -3
-158 9 -19 22 -66 28 -103 6 -38 17 -81 25 -96 8 -15 14 -35 14 -45 0 -10 7
-31 15 -47 8 -16 20 -53 26 -82 7 -29 17 -62 24 -73 7 -11 16 -38 20 -60 4
-21 13 -52 21 -67 22 -42 18 -75 -11 -94 -33 -21 -28 -48 27 -151 39 -74 40
-76 25 -112 -9 -20 -17 -43 -20 -51 -6 -18 -106 -70 -136 -70 -24 0 -61 -52
-61 -86 0 -12 -7 -27 -15 -34 -24 -20 -19 -69 8 -79 37 -14 192 -33 318 -38
96 -3 118 -2 129 11 7 9 19 16 26 16 8 0 14 4 14 9 0 10 58 71 68 71 4 0 13
-5 20 -12 13 -13 94 -14 114 -1 7 4 31 13 53 18 36 9 40 14 48 53 9 47 13 49
44 24 27 -22 33 -50 16 -84 -7 -16 -18 -62 -23 -104 -5 -41 -16 -84 -23 -95
-8 -11 -12 -30 -9 -44 6 -31 17 -33 249 -38 139 -3 187 -1 200 8 15 11 19 35
24 139 5 107 9 130 26 149 11 12 30 54 43 93 22 68 22 73 7 115 -9 24 -19 96
-22 159 -6 109 -36 264 -56 284 -13 14 -11 51 6 131 8 39 15 90 15 114 0 24 8
71 17 105 22 80 22 400 0 443 -8 16 -20 89 -26 163 -7 74 -20 182 -28 240 -34
233 -17 882 27 1035 11 38 20 96 20 127 0 34 4 58 10 58 7 0 10 -21 9 -52 -1
-29 5 -89 14 -133 8 -44 20 -107 27 -140 6 -33 20 -98 30 -145 10 -47 21 -124
24 -171 3 -48 12 -140 20 -205 12 -103 33 -323 40 -434 9 -126 20 -212 30
-225 10 -13 41 -24 156 -55 19 -5 53 -10 76 -10 68 0 70 -6 84 -190 6 -91 18
-190 25 -220 7 -30 16 -82 20 -115 3 -33 11 -89 17 -125 16 -103 -5 -523 -30
-586 -24 -61 -40 -106 -59 -164 -8 -25 -19 -54 -23 -65 -5 -11 -23 -52 -39
-92 -17 -39 -31 -77 -31 -85 0 -15 -46 -68 -59 -68 -4 0 -21 -12 -37 -26 -16
-14 -46 -37 -67 -52 l-39 -26 26 -19 c30 -22 28 -50 -11 -107 -12 -19 -23 -40
-23 -46 0 -6 -7 -25 -16 -43 -12 -23 -13 -36 -6 -43 7 -7 61 -11 141 -10 105
0 142 4 191 21 33 12 65 21 71 21 21 0 78 52 87 79 8 22 19 30 46 35 20 4 36
12 37 19 0 7 0 41 -1 77 -1 53 3 70 19 89 11 13 23 32 26 42 7 20 47 35 64 24
6 -3 11 -19 11 -35 0 -45 63 -67 104 -37 16 12 17 17 6 37 -15 29 -6 35 62 43
58 7 106 34 166 94 34 33 165 113 187 113 11 0 65 -67 65 -82 0 -9 4 -19 9
-23 10 -5 15 7 26 60 6 31 61 93 72 82 9 -10 -28 -237 -48 -297 -20 -57 -24
-107 -11 -127 11 -18 95 -32 173 -29 123 4 171 59 184 208 4 49 13 110 20 138
11 41 11 56 -1 89 -10 31 -11 66 -4 168 5 70 14 153 19 183 6 30 13 75 16 100
4 34 15 56 45 89 38 42 40 48 40 110 0 36 7 89 16 116 8 28 19 101 24 163 6
62 14 131 19 155 6 23 12 144 15 269 5 212 4 230 -14 260 -17 30 -19 50 -16
218 3 143 7 192 19 215 11 22 15 59 15 140 -1 69 5 132 15 170 8 33 18 83 22
110 7 45 33 124 55 165 11 21 52 14 72 -12 18 -25 21 -42 38 -208 6 -63 18
-152 26 -197 8 -45 19 -136 24 -203 5 -66 16 -148 24 -183 8 -34 19 -93 25
-132 20 -137 42 -251 60 -310 26 -85 61 -236 61 -265 0 -14 6 -46 14 -71 8
-25 17 -77 21 -115 3 -38 13 -91 20 -119 7 -27 16 -90 20 -140 6 -85 43 -223
67 -253 14 -17 -6 -62 -27 -62 -9 0 -28 -12 -43 -27 -28 -28 -92 -122 -92
-135 0 -4 -8 -8 -18 -8 -11 0 -29 -9 -42 -20 -13 -11 -40 -25 -61 -30 -21 -6
-50 -21 -65 -33 -24 -21 -31 -22 -98 -13 -101 12 -138 4 -160 -37 -29 -55 -43
-78 -55 -90 -37 -37 32 -101 141 -130 101 -28 425 -31 454 -5 24 21 123 32
161 17 42 -16 73 -49 73 -79 0 -20 -14 -41 -49 -75 -35 -34 -51 -58 -55 -84
-4 -20 -14 -53 -23 -74 -17 -38 -17 -39 7 -57 24 -18 59 -25 190 -38 97 -9
298 -9 331 0 14 4 44 26 65 48 21 22 47 40 56 40 10 0 40 10 68 22 58 25 67
49 56 151 -4 39 0 93 10 147 8 47 19 157 24 245 5 88 17 203 26 255 21 121 26
819 6 942 -6 42 -16 150 -22 240 -6 90 -18 201 -25 247 -11 58 -17 200 -20
470 -3 212 -10 428 -16 480 -8 66 -8 118 0 175 6 44 13 137 15 206 6 141 30
265 57 296 11 11 26 41 35 67 9 26 20 49 25 53 16 9 10 123 -8 157 -13 26 -17
69 -18 242 -2 201 -1 212 21 256 12 25 30 51 38 58 10 8 16 29 16 52 0 22 8
55 19 74 17 32 19 65 22 318 5 382 2 501 -15 561 -8 28 -18 74 -22 101 -13 98
-78 205 -153 253 -14 9 -38 28 -53 40 -33 30 -146 107 -220 152 -45 26 -60 42
-69 70 -18 55 -24 59 -69 48 -66 -17 -87 -6 -104 55 -29 106 -29 121 3 199 31
73 31 74 28 243 l-2 170 -30 44 c-31 46 -108 109 -135 111 -8 0 -33 9 -55 20
-63 30 -197 28 -272 -6 -68 -29 -93 -51 -132 -113 -38 -61 -43 -112 -32 -356
6 -153 12 -207 25 -230 9 -16 16 -35 16 -42 0 -25 61 -129 95 -163 19 -19 35
-39 35 -45 1 -5 9 -28 20 -50 24 -50 25 -67 1 -113 -33 -66 -71 -149 -71 -157
0 -5 -17 -29 -38 -54 -54 -66 -72 -96 -88 -152 -12 -40 -19 -49 -38 -49 -19 0
-30 13 -57 67 -35 70 -108 153 -133 153 -13 0 -51 16 -115 49 -14 7 -91 128
-91 142 0 5 23 30 51 57 45 43 52 55 56 98 5 41 12 55 45 85 l38 36 -5 114 -5
114 -32 22 c-18 12 -41 22 -50 22 -24 1 -31 17 -34 75 -2 65 -1 59 -21 83 -10
11 -29 35 -43 53 -103 134 -139 156 -305 189 -143 28 -172 27 -232 -6 -66 -37
-83 -51 -119 -98 -103 -135 -152 -282 -153 -465 -1 -67 3 -93 19 -123 12 -22
20 -56 20 -85 0 -39 6 -55 28 -79 15 -17 37 -34 50 -37 12 -4 22 -12 22 -17 0
-6 20 -9 45 -8 57 4 75 -13 82 -74 5 -41 2 -48 -33 -87 -22 -24 -53 -49 -70
-56 -17 -7 -36 -20 -44 -28 -7 -9 -18 -16 -24 -16 -6 0 -24 -7 -40 -15 -16 -9
-43 -16 -60 -18 -27 -2 -31 1 -34 26 -2 16 2 35 9 43 13 16 1 92 -28 169 -14
39 -18 84 -27 310 -4 87 -10 122 -29 168 -14 32 -30 64 -36 70 -6 6 -11 17
-11 23 0 7 -22 40 -49 72 -42 51 -59 63 -121 86 -91 34 -198 36 -248 6 -18
-11 -37 -20 -43 -20 -29 0 -120 -78 -146 -125 -27 -49 -27 -52 -26 -225 1 -96
7 -209 14 -250 15 -90 17 -207 5 -272 l-8 -48 36 0 c38 0 76 -28 76 -55 0 -36
-56 -93 -122 -124 -83 -40 -109 -38 -123 9 -5 19 -18 46 -27 60 -10 13 -18 29
-18 35 0 16 -101 115 -117 115 -7 0 -43 16 -80 35 -36 19 -82 40 -102 46 -20
6 -41 16 -47 20 -6 5 -31 16 -55 24 -122 39 -219 86 -219 104 0 5 -9 18 -20
31 -11 13 -20 29 -20 36 0 7 -9 21 -19 31 -14 13 -22 38 -27 86 -6 59 -4 72
13 95 33 45 77 153 77 188 0 18 -7 41 -16 51 -11 13 -17 48 -21 120 -6 121
-24 166 -92 236 -79 79 -118 96 -229 98 -54 1 -101 -3 -108 -8 -7 -6 -32 -17
-55 -23 -82 -25 -165 -136 -166 -223 0 -23 3 -76 7 -119 6 -61 4 -82 -9 -108
-15 -29 -15 -35 4 -91 12 -32 21 -65 21 -72 0 -6 16 -32 35 -56 21 -26 35 -55
35 -71 0 -15 8 -38 18 -51 11 -13 27 -46 37 -72 l18 -48 -38 -87 c-41 -94 -49
-103 -111 -132 -23 -10 -45 -23 -48 -29 -4 -6 -13 -11 -20 -11 -16 0 -126 -52
-181 -85 -22 -13 -64 -36 -93 -51 -52 -26 -52 -26 -85 -7 -31 18 -32 22 -35
89 -3 68 -2 70 37 113 36 40 40 49 43 109 2 36 -2 72 -8 81 -6 9 -16 67 -23
129 -6 62 -17 124 -23 138 -9 19 -9 33 0 58 18 50 14 94 -13 151 -26 53 -55
75 -99 75 -13 0 -29 7 -36 15 -7 9 -27 22 -45 31 -30 14 -39 14 -102 -1 -72
-17 -165 -58 -184 -81 -6 -8 -17 -14 -23 -14 -15 0 -59 -46 -75 -78 -10 -18
-9 -35 0 -77 11 -49 10 -60 -7 -97 -16 -36 -19 -67 -19 -213 0 -190 3 -203 75
-281 25 -27 39 -54 44 -82 3 -23 10 -42 14 -42 15 0 102 -119 108 -149 11 -54
-73 -191 -117 -191 -5 0 -22 -9 -37 -20 -15 -10 -39 -22 -54 -25 l-26 -7 -6
99 c-14 209 -18 246 -30 281 -8 21 -17 57 -21 82 -4 25 -16 62 -26 82 -11 21
-19 45 -19 54 0 9 -18 39 -40 68 -99 128 -126 162 -142 174 -10 7 -18 18 -18
24 0 6 -7 19 -15 28 -8 9 -38 61 -66 116 -65 126 -64 160 8 265 64 94 73 110
73 136 0 11 15 39 34 62 28 33 35 52 42 108 4 37 7 97 6 133 0 41 5 73 14 87
18 28 18 57 0 86 -7 12 -16 46 -19 75 -10 92 -71 164 -151 179 -17 3 -38 11
-46 18 -55 46 -189 75 -230 51z m-986 -2231 c14 -205 78 -477 152 -643 13 -29
24 -57 24 -62 0 -6 4 -10 8 -10 5 0 15 -15 24 -33 15 -32 15 -35 -5 -60 -28
-32 -85 -52 -123 -43 -26 7 -114 90 -114 108 0 13 -54 92 -88 128 -18 19 -40
49 -47 65 -8 17 -18 37 -23 45 -40 68 -52 111 -55 185 -3 59 -9 91 -25 120
-12 22 -22 46 -22 53 0 7 -7 15 -15 18 -29 11 -15 32 25 39 58 10 200 126 200
164 0 6 15 20 32 31 42 25 44 21 52 -105z m1510 -768 c29 -21 34 -124 9 -179
-12 -23 -23 -51 -27 -61 -7 -23 -44 -19 -60 5 -8 13 -6 22 8 37 18 20 18 22 3
39 -10 10 -17 26 -17 36 0 20 52 136 61 136 3 0 13 -6 23 -13z m3904 -2192 c2
-256 1 -286 -18 -350 -23 -82 -26 -178 -6 -217 38 -73 56 -255 62 -653 4 -226
8 -301 20 -338 15 -44 14 -51 -2 -98 -21 -58 -69 -102 -85 -78 -5 8 -9 20 -9
27 0 7 -9 30 -20 52 -16 32 -21 62 -23 166 -2 124 -2 126 23 147 33 28 51 68
39 88 -4 9 -13 105 -19 215 -6 109 -17 235 -25 280 -8 44 -15 119 -15 167 0
91 -12 165 -37 234 -18 50 -13 116 12 143 15 16 17 50 20 237 4 238 8 280 36
333 11 19 19 44 19 56 0 11 3 24 8 28 11 11 17 -124 20 -439z m-2169 98 c1
-23 10 -59 20 -80 11 -22 22 -71 26 -118 4 -44 14 -100 22 -124 13 -37 14 -89
9 -304 -3 -143 -8 -263 -11 -267 -3 -4 2 -73 11 -151 12 -105 14 -183 9 -287
-7 -166 -13 -193 -30 -136 -8 27 -10 94 -7 201 4 131 2 166 -11 192 -21 42
-25 74 -42 330 -8 123 -20 242 -26 265 -7 25 -9 78 -5 141 4 55 7 163 7 240 1
77 3 149 6 160 l6 20 8 -20 c4 -11 8 -39 8 -62z m1665 -1175 c3 -40 8 -122 11
-182 7 -113 19 -150 55 -161 39 -13 38 -188 -1 -275 -42 -91 -68 -135 -83
-138 -26 -6 -54 34 -61 85 -3 26 -11 64 -16 83 -6 19 -13 112 -16 205 -4 153
-2 176 16 229 12 33 21 70 21 84 0 26 50 142 61 142 4 0 10 -33 13 -72z"/>
</g>
</svg>
