<?xml version="1.0" encoding="UTF-8"?>
<!DOCTYPE svg PUBLIC "-//W3C//DTD SVG 1.1//EN" "http://www.w3.org/Graphics/SVG/1.1/DTD/svg11.dtd">
<!-- Creator: CorelDRAW X6 -->
<svg xmlns="http://www.w3.org/2000/svg" xml:space="preserve" width="279.4mm" height="215.9mm" version="1.1" style="shape-rendering:geometricPrecision; text-rendering:geometricPrecision; image-rendering:optimizeQuality; fill-rule:evenodd; clip-rule:evenodd"
viewBox="0 0 27940 21590"
 xmlns:xlink="http://www.w3.org/1999/xlink">
 <defs>
  <style type="text/css">
   <![CDATA[
    .str0 {stroke:#373435;stroke-width:7.62}
    .fil0 {fill:#FEFEFE}
   ]]>
  </style>
 </defs>
 <g id="Capa_x0020_1">
  <metadata id="CorelCorpID_0Corel-Layer"/>
  <path class="fil0 str0" d="M16525 8211c-99,109 -155,328 -113,441 88,233 0,349 -360,466 -205,67 -268,113 -519,367 -377,385 -434,462 -469,646 -39,198 -14,254 88,236 64,-14 99,11 155,102 113,180 483,522 568,522 67,0 74,21 74,265 0,279 42,624 131,1012 28,131 39,258 25,282 -14,25 -32,74 -35,113 -4,42 -32,194 -60,339 -74,346 -116,1147 -67,1178 21,11 28,81 18,162 -18,116 -11,141 39,141 35,0 88,25 120,56 42,46 102,53 265,39 236,-21 265,-35 201,-113 -39,-46 -28,-53 81,-53 307,0 392,-141 127,-212 -95,-28 -152,-71 -191,-141 -64,-123 -64,-127 -21,-811 42,-635 64,-808 109,-864 71,-85 212,-723 236,-1051 46,-691 78,-356 56,617 -18,1083 35,2159 116,2290 7,14 -11,49 -39,81 -64,60 -46,78 127,109 109,21 123,35 109,109 -14,81 -7,85 145,85 250,0 254,-11 261,-1069 7,-875 67,-1506 148,-1588 18,-18 32,123 35,314 7,321 49,649 92,720 11,18 0,64 -21,99 -32,53 -21,127 49,374 49,169 85,328 74,356 -11,25 -4,78 18,113 39,78 18,123 -92,183 -46,21 -81,71 -81,106 0,109 339,155 420,60 25,-28 71,-42 106,-32 35,7 88,-11 120,-39 99,-102 106,-60 35,201 -14,56 7,64 191,53l205 -11 28 -141c35,-180 32,-487 -7,-589 -18,-49 -18,-169 4,-293 28,-148 25,-303 -4,-533 -46,-370 -49,-875 -14,-1129l25 -173 28 159c21,141 134,1072 134,1136 0,14 53,35 120,46 148,28 159,60 187,589 18,374 14,430 -60,617 -42,113 -113,233 -155,272 -39,35 -71,78 -67,95 7,18 -7,71 -25,123l-35 95 176 -18c198,-21 289,-92 332,-250 21,-92 92,-134 92,-60 0,18 25,35 56,35 28,0 42,-18 32,-35 -11,-21 4,-35 32,-35 28,0 113,-42 187,-92 123,-85 134,-85 176,-28 42,56 46,56 46,7 0,-32 18,-71 39,-85 25,-14 32,0 21,42 -11,39 -32,127 -46,198 -21,134 -21,134 102,134 67,0 138,-21 159,-46 21,-25 46,-198 53,-388 7,-187 32,-360 53,-385 60,-78 109,-550 106,-1034 -4,-441 42,-758 113,-758 32,0 56,102 88,388 25,236 219,1288 261,1415 46,148 -162,349 -370,349 -81,0 -187,81 -191,145 -4,64 229,109 434,92 289,-28 339,4 236,145 -42,56 -67,123 -56,145 39,64 423,46 543,-21 99,-56 102,-67 145,-483 49,-519 49,-857 4,-1256 -56,-487 -49,-1408 11,-1552 39,-88 49,-194 35,-360 -14,-176 -7,-268 39,-360 39,-85 56,-219 56,-469 0,-483 -32,-579 -258,-741 -102,-74 -187,-145 -194,-159 -7,-18 -42,-28 -78,-28 -71,0 -113,-141 -67,-219 53,-81 35,-335 -32,-416 -92,-113 -328,-138 -427,-39 -113,113 -106,466 14,688 81,155 85,173 35,279 -28,64 -71,145 -95,183 -25,39 -49,78 -53,85 -4,7 -56,-32 -113,-88 -56,-56 -138,-134 -176,-169 -60,-56 -67,-78 -28,-123 134,-173 176,-377 78,-413 -28,-14 -53,-49 -53,-85 0,-88 -191,-240 -335,-268 -166,-32 -279,46 -356,250 -85,226 -39,473 99,540 116,53 99,127 -46,201 -127,67 -134,67 -134,-11 -4,-222 -67,-575 -120,-653 -99,-152 -332,-169 -466,-39 -46,46 -56,120 -46,388 7,236 25,332 56,332 74,0 46,67 -53,131 -78,53 -95,53 -109,11 -32,-95 -169,-201 -342,-265 -99,-35 -205,-95 -236,-134 -71,-74 -85,-219 -28,-254 60,-39 0,-377 -81,-469 -116,-127 -385,-85 -434,71 -42,138 -21,356 49,504 56,106 60,155 32,219 -39,88 -402,303 -452,272 -42,-25 -39,-145 4,-173 25,-14 32,-85 18,-169 -11,-81 -25,-208 -32,-279 -4,-74 -14,-138 -25,-141 -148,-95 -176,-99 -293,-49 -155,64 -173,99 -191,363 -11,201 -4,236 95,381 60,88 109,176 109,198 0,39 -131,173 -173,173 -14,0 -39,-99 -49,-219 -14,-166 -42,-247 -127,-360 -60,-81 -134,-198 -169,-261 -60,-113 -56,-120 39,-300 95,-183 138,-490 78,-582 -28,-46 -250,-148 -318,-148 -25,0 -78,35 -116,78l0 0zm-737 1916c11,109 53,279 92,381 88,226 88,236 4,236 -78,0 -279,-254 -307,-388 -11,-49 -32,-123 -49,-169 -25,-60 -21,-78 18,-78 28,0 78,-39 113,-88 35,-46 74,-88 85,-88 11,0 32,88 46,194l0 0zm1274 684c-11,42 -35,74 -49,74 -25,0 -28,-49 -7,-194 0,-18 21,-14 42,7 21,21 28,71 14,113l0 0zm3298 1827c-4,268 7,667 25,885 18,236 14,423 -4,459 -28,49 -35,49 -60,-11 -35,-95 -39,-293 -4,-314 14,-7 14,-148 -4,-310 -49,-504 -32,-1192 32,-1192 11,0 18,219 14,483l0 0zm-1774 600c0,395 -7,445 -28,258 -14,-127 -35,-427 -46,-670 -18,-416 -18,-430 28,-258 28,113 46,370 46,670zm1390 483c18,21 32,74 32,123 -4,116 -88,275 -120,222 -53,-88 -64,-385 -18,-536l49 -159 11 159c7,88 25,173 46,191z"/>
  <path class="fil0 str0" d="M12898 8380c-116,67 -183,88 -198,64 -21,-35 -88,25 -236,201 -42,53 -219,445 -219,487 0,141 -430,180 -607,56 -85,-60 -134,-71 -250,-53 -360,60 -483,64 -483,25 0,-21 25,-49 53,-60 56,-25 71,-138 21,-173 -18,-11 -42,-67 -56,-127 -14,-67 -56,-120 -109,-138 -46,-18 -102,-74 -127,-123 -49,-109 -134,-113 -332,-14 -113,53 -162,102 -191,194 -74,215 25,466 212,543 60,25 106,56 106,71 0,39 -148,152 -360,286 -145,88 -169,116 -169,215 0,78 -35,152 -102,226 -159,176 -243,222 -349,191 -159,-49 -586,-215 -624,-243 -18,-18 -71,-39 -116,-49 -60,-14 -78,-7 -64,28 21,53 -78,88 -279,88 -141,4 -141,4 -53,53 49,28 183,49 303,53 116,0 222,11 236,21 11,11 4,64 -14,113 -21,53 -21,102 -4,120 18,18 198,88 399,155l367 123 194 -95c106,-49 243,-131 300,-173 102,-78 113,-78 183,-18 74,60 141,236 219,582 74,332 81,564 35,952 -25,212 -46,494 -53,621 -4,127 -21,286 -42,353 -21,67 -46,279 -56,473 -14,219 -42,381 -78,434 -28,42 -49,99 -46,123 18,99 -173,377 -282,416 -18,7 -39,46 -46,85 -11,64 7,71 183,67 208,-4 353,-32 388,-74 49,-60 325,-981 455,-1531 78,-321 162,-639 194,-706 32,-67 74,-191 95,-279 39,-152 42,-155 74,-71 18,49 74,286 120,529 49,243 120,508 159,589 64,127 67,198 53,617 -11,258 -28,543 -42,635 -21,159 -18,166 71,191 53,11 109,53 131,88 25,49 74,67 191,67 183,0 212,-64 88,-194 -42,-42 -81,-123 -92,-180 -11,-56 -25,-127 -35,-159 -7,-32 7,-123 39,-205 28,-85 67,-303 88,-494 18,-187 42,-427 56,-533 21,-183 -28,-504 -201,-1291 -25,-102 -32,-201 -18,-222 14,-21 0,-159 -32,-307 -32,-148 -64,-310 -71,-363 -7,-49 -49,-187 -88,-300 -56,-159 -71,-250 -53,-381l25 -169 303 -92c353,-106 466,-166 466,-254 0,-35 60,-183 134,-332l138 -268 -92 -67 -88 -67 194 -145c328,-243 385,-360 85,-187l0 0z"/>
  <path class="fil0 str0" d="M3451 8550c-35,35 -60,109 -60,159 0,53 -14,95 -32,95 -32,0 -28,92 4,176 14,28 32,113 46,187 11,74 42,141 71,152 53,21 49,74 -28,473 -28,145 -64,434 -78,642 -18,321 -14,392 39,466 53,88 53,92 -7,88 -39,0 -106,-49 -152,-106 -81,-106 -85,-120 -60,-533 21,-360 78,-688 183,-1048 18,-64 14,-78 -18,-60 -25,14 -141,53 -261,85l-215 60 -95 254c-49,141 -131,314 -173,388 -46,78 -78,191 -78,268 4,134 169,504 286,635 42,49 60,166 74,441 18,349 25,381 95,413 42,18 88,74 95,123 102,533 243,1937 208,2043 -11,32 -67,99 -123,152 -56,56 -92,113 -81,134 49,78 441,11 441,-78 0,-14 39,-28 85,-28 99,0 145,-56 134,-159 -4,-56 0,-56 28,14 28,64 21,106 -35,198 -39,64 -71,141 -71,176 0,56 25,60 180,42 226,-28 300,-92 325,-282 14,-81 39,-219 56,-307 21,-88 35,-579 39,-1094l0 -938 116 11c212,21 219,0 176,-504l-39 -452 152 -198c81,-106 176,-247 208,-314 78,-148 49,-222 -212,-572 -106,-141 -191,-275 -191,-300 0,-88 -109,-148 -346,-191 -314,-53 -349,-74 -296,-194 74,-159 53,-427 -35,-512 -95,-88 -279,-92 -356,-7l0 0zm349 1062c-32,455 4,624 176,847 67,85 120,176 120,201 0,25 -53,64 -120,85 -67,21 -180,85 -254,145 -155,123 -233,134 -123,18 78,-85 81,-99 64,-716 -7,-346 -25,-677 -35,-734 -18,-92 -4,-116 74,-166 53,-32 102,-60 109,-60 7,-4 0,169 -11,381zm656 699c-35,99 -35,99 -39,-42 -4,-99 7,-127 35,-99 28,28 28,67 4,141zm-1492 18c0,109 -11,131 -28,85 -25,-64 -11,-233 18,-233 7,0 14,67 11,148l0 0zm1312 494c28,53 28,64 0,49 -21,-14 -56,-56 -78,-99 -28,-53 -28,-64 0,-49 21,14 56,56 78,99zm-448 2159c14,85 7,191 -11,236 -18,46 -46,148 -60,226 -18,116 -28,131 -49,71 -35,-85 -42,-617 -11,-804l21 -138 42 127c25,71 56,198 67,282l0 0z"/>
 </g>
</svg>
