<?xml version="1.0" encoding="UTF-8"?>
<!DOCTYPE svg PUBLIC "-//W3C//DTD SVG 1.1//EN" "http://www.w3.org/Graphics/SVG/1.1/DTD/svg11.dtd">
<!-- Creator: CorelDRAW X6 -->
<svg xmlns="http://www.w3.org/2000/svg" xml:space="preserve" width="279.4mm" height="215.9mm" version="1.1" style="shape-rendering:geometricPrecision; text-rendering:geometricPrecision; image-rendering:optimizeQuality; fill-rule:evenodd; clip-rule:evenodd"
viewBox="0 0 27940 21590"
 xmlns:xlink="http://www.w3.org/1999/xlink">
 <defs>
  <style type="text/css">
   <![CDATA[
    .str0 {stroke:#373435;stroke-width:7.62}
    .fil0 {fill:#FEFEFE}
   ]]>
  </style>
 </defs>
 <g id="Capa_x0020_1">
  <metadata id="CorelCorpID_0Corel-Layer"/>
  <path class="fil0 str0" d="M3451 8550c-35,35 -60,109 -60,159 0,53 -14,95 -32,95 -32,0 -28,92 4,176 14,28 32,113 46,187 11,74 42,141 71,152 53,21 49,74 -28,473 -28,145 -64,434 -78,642 -18,321 -14,392 39,466 53,88 53,92 -7,88 -39,0 -106,-49 -152,-106 -81,-106 -85,-120 -60,-533 21,-360 78,-688 183,-1048 18,-64 14,-78 -18,-60 -25,14 -141,53 -261,85l-215 60 -95 254c-49,141 -131,314 -173,388 -46,78 -78,191 -78,268 4,134 169,504 286,635 42,49 60,166 74,441 18,349 25,381 95,413 42,18 88,74 95,123 102,533 243,1937 208,2043 -11,32 -67,99 -123,152 -56,56 -92,113 -81,134 49,78 441,11 441,-78 0,-14 39,-28 85,-28 99,0 145,-56 134,-159 -4,-56 0,-56 28,14 28,64 21,106 -35,198 -39,64 -71,141 -71,176 0,56 25,60 180,42 226,-28 300,-92 325,-282 14,-81 39,-219 56,-307 21,-88 35,-579 39,-1094l0 -938 116 11c212,21 219,0 176,-504l-39 -452 152 -198c81,-106 176,-247 208,-314 78,-148 49,-222 -212,-572 -106,-141 -191,-275 -191,-300 0,-88 -109,-148 -346,-191 -314,-53 -349,-74 -296,-194 74,-159 53,-427 -35,-512 -95,-88 -279,-92 -356,-7l0 0zm349 1062c-32,455 4,624 176,847 67,85 120,176 120,201 0,25 -53,64 -120,85 -67,21 -180,85 -254,145 -155,123 -233,134 -123,18 78,-85 81,-99 64,-716 -7,-346 -25,-677 -35,-734 -18,-92 -4,-116 74,-166 53,-32 102,-60 109,-60 7,-4 0,169 -11,381zm656 699c-35,99 -35,99 -39,-42 -4,-99 7,-127 35,-99 28,28 28,67 4,141zm-1492 18c0,109 -11,131 -28,85 -25,-64 -11,-233 18,-233 7,0 14,67 11,148l0 0zm1312 494c28,53 28,64 0,49 -21,-14 -56,-56 -78,-99 -28,-53 -28,-64 0,-49 21,14 56,56 78,99zm-448 2159c14,85 7,191 -11,236 -18,46 -46,148 -60,226 -18,116 -28,131 -49,71 -35,-85 -42,-617 -11,-804l21 -138 42 127c25,71 56,198 67,282l0 0z"/>
 </g>
</svg>
