<?xml version="1.0" standalone="no"?>
<!DOCTYPE svg PUBLIC "-//W3C//DTD SVG 20010904//EN"
 "http://www.w3.org/TR/2001/REC-SVG-20010904/DTD/svg10.dtd">
<svg version="1.0" xmlns="http://www.w3.org/2000/svg"
 width="282.947446pt" height="698.560502pt" viewBox="0 0 282.947446 698.560502"
 preserveAspectRatio="xMidYMid meet">
<metadata>
Created by potrace 1.12, written by Peter Selinger 2001-2015
</metadata>
<g transform="translate(-206.888883,775.619127) scale(0.100000,-0.100000)"
fill="#000000" stroke="none">
<path d="M3285 7751 c-58 -10 -136 -58 -162 -102 -9 -16 -20 -29 -24 -29 -7 0
-15 -53 -25 -160 -4 -52 -10 -69 -29 -85 -17 -14 -24 -30 -23 -51 0 -17 -2
-36 -5 -42 -12 -19 24 -109 48 -120 28 -13 37 -55 34 -158 -1 -46 3 -80 10
-87 6 -6 11 -24 11 -40 0 -28 16 -67 31 -77 77 -51 110 -101 85 -129 -31 -34
-35 -64 -13 -89 17 -18 19 -26 10 -41 -6 -10 -17 -47 -24 -82 -6 -35 -16 -69
-20 -75 -5 -5 -15 -48 -23 -95 -8 -46 -22 -111 -30 -144 -9 -32 -16 -71 -16
-85 0 -14 -7 -49 -15 -79 -8 -31 -17 -131 -20 -240 -4 -102 -11 -233 -16 -291
-6 -58 -13 -186 -16 -285 l-6 -180 27 -40 c15 -22 30 -42 34 -45 18 -13 63
-90 58 -98 -8 -14 -75 -22 -119 -15 -30 4 -41 12 -51 37 -8 17 -48 66 -90 108
l-76 77 0 81 c0 45 -5 123 -11 173 -12 102 7 324 37 434 9 36 17 121 20 223 3
91 12 188 19 215 7 28 16 68 20 90 4 22 15 66 26 97 10 32 19 70 19 85 1 15 9
53 20 83 11 30 19 70 20 88 0 17 16 72 35 121 37 94 46 157 21 148 -8 -3 -32
-9 -53 -13 -21 -3 -45 -12 -53 -19 -8 -7 -42 -16 -75 -20 -33 -4 -69 -13 -80
-20 -11 -6 -45 -15 -76 -19 -31 -4 -72 -15 -90 -25 -19 -10 -50 -22 -69 -26
-19 -4 -49 -18 -66 -31 -34 -26 -84 -117 -84 -152 0 -13 -5 -32 -10 -42 -6
-11 -15 -43 -20 -72 -6 -28 -16 -59 -24 -67 -8 -9 -18 -38 -22 -66 -4 -27 -15
-61 -25 -74 -11 -13 -19 -28 -19 -33 0 -6 -9 -21 -20 -35 -11 -14 -20 -33 -20
-43 0 -10 -9 -29 -20 -43 -11 -14 -20 -34 -20 -44 0 -26 -36 -89 -81 -143 -31
-36 -39 -55 -39 -86 0 -21 -5 -57 -11 -79 -14 -53 -14 -47 1 -155 17 -133 40
-192 144 -365 32 -55 73 -129 90 -165 29 -64 81 -145 117 -185 9 -11 20 -32
24 -46 3 -14 20 -38 37 -54 26 -25 29 -33 23 -64 -4 -20 -9 -194 -12 -387 l-4
-351 39 -39 c29 -29 55 -43 98 -54 58 -15 59 -16 72 -60 7 -25 18 -61 24 -80
6 -19 17 -89 24 -155 19 -175 40 -305 58 -359 9 -26 16 -68 16 -94 0 -26 5
-63 12 -82 6 -19 15 -109 19 -200 10 -222 26 -395 38 -419 6 -11 11 -61 11
-111 0 -109 17 -275 31 -310 23 -55 39 -324 24 -403 -6 -33 -4 -41 14 -53 15
-11 21 -26 21 -55 0 -48 -45 -211 -70 -251 -19 -31 -76 -78 -96 -78 -21 0 -73
-54 -98 -102 -40 -75 -23 -83 205 -94 95 -5 111 -3 147 15 23 12 47 21 55 21
19 0 97 69 106 94 7 17 22 22 89 32 138 20 216 73 184 125 -7 11 -15 40 -19
64 -5 37 -3 45 10 45 11 0 18 -13 23 -37 4 -21 15 -49 25 -62 11 -13 19 -34
19 -47 0 -33 -46 -117 -102 -186 -10 -11 -18 -28 -18 -38 0 -9 -5 -21 -10 -26
-18 -18 -37 -110 -28 -134 8 -22 10 -22 156 -17 239 8 328 33 350 97 6 16 23
36 39 46 15 10 30 19 32 21 3 2 8 65 11 141 8 142 27 240 53 270 17 19 20 47
36 342 6 107 15 233 21 280 5 47 10 240 10 430 0 275 -3 358 -15 403 -12 48
-15 146 -15 556 0 558 -6 515 73 485 20 -8 52 -14 70 -14 48 0 177 29 217 48
l35 17 -3 215 c-2 142 -8 230 -17 260 -8 27 -16 124 -19 236 -4 130 -12 209
-22 245 -26 88 -21 123 23 168 21 22 49 56 63 76 14 20 42 58 63 85 20 27 37
52 37 55 0 6 59 85 71 95 14 13 126 176 146 213 41 79 66 166 61 217 -4 41
-48 152 -78 200 -6 8 -16 26 -22 40 -12 25 -76 107 -110 142 -10 10 -18 22
-18 27 0 5 -18 27 -39 49 -21 22 -45 51 -52 64 -28 50 -75 113 -116 154 -50
50 -66 81 -83 154 -33 138 -83 186 -210 202 -41 5 -87 14 -101 19 -15 6 -69
16 -120 24 -52 7 -119 20 -149 29 -30 9 -67 16 -82 16 -35 0 -128 56 -130 78
-5 59 17 127 56 170 20 22 21 35 21 227 0 173 -2 206 -16 221 -9 11 -20 31
-25 46 -8 25 -23 38 -114 102 -40 28 -140 40 -225 27z m292 -1067 c2 -126 -2
-222 -12 -288 -17 -112 -20 -370 -5 -461 5 -33 14 -91 20 -128 5 -38 16 -80
24 -95 7 -15 16 -43 20 -63 4 -21 13 -42 21 -49 8 -7 15 -17 15 -23 0 -21 73
-118 140 -186 38 -39 72 -83 76 -98 4 -16 14 -37 24 -48 36 -42 39 -57 16 -81
-32 -34 -96 -66 -147 -75 -25 -4 -61 -18 -80 -31 -19 -12 -57 -34 -84 -48 -26
-14 -56 -32 -66 -40 -25 -21 -40 -33 -67 -52 -13 -9 -31 -31 -40 -49 -15 -29
-26 -35 -90 -53 -107 -28 -110 -15 -13 81 l81 80 0 304 c0 167 5 396 12 509
12 222 -2 535 -26 595 -7 17 -16 47 -20 69 -4 21 -15 54 -24 73 -16 35 -16 35
10 54 25 18 26 23 15 47 -7 15 -20 35 -29 44 -31 31 -17 78 23 78 9 0 27 9 41
19 13 11 36 23 49 26 13 3 40 24 59 45 19 22 40 38 45 37 6 -2 11 -78 12 -193z
m769 -939 c42 -42 43 -66 4 -138 -16 -31 -30 -63 -30 -72 0 -35 -18 -11 -24
31 -11 85 -4 214 12 214 3 0 20 -16 38 -35z m-1774 -159 c1 -139 -6 -188 -19
-137 -3 13 -17 44 -30 68 -29 54 -29 54 2 87 19 21 25 38 25 75 0 43 7 67 17
57 2 -2 5 -70 5 -150z m1518 -528 c17 -12 30 -28 30 -36 0 -8 9 -30 21 -48 11
-19 17 -38 14 -44 -13 -21 -105 95 -105 130 0 25 4 25 40 -2z m-1478 -90 c-15
-15 -26 -4 -18 18 5 13 9 15 18 6 9 -9 9 -15 0 -24z m-40 -40 c-15 -15 -26 -4
-18 18 5 13 9 15 18 6 9 -9 9 -15 0 -24z m869 -1906 c-4 -54 -11 -53 -11 3 0
27 3 45 7 41 4 -4 6 -24 4 -44z m52 -174 c3 -31 14 -73 25 -95 65 -125 83
-202 99 -420 5 -72 3 -86 -16 -116 -11 -19 -21 -42 -21 -51 0 -9 -6 -27 -14
-39 -14 -23 -22 -63 -32 -168 -8 -93 -36 -194 -54 -194 -8 0 -19 18 -27 44 -7
24 -18 50 -25 59 -15 17 -16 160 -4 567 5 166 11 256 22 290 12 42 21 110 24
195 1 34 17 -16 23 -72z"/>
</g>
</svg>
