<?xml version="1.0" standalone="no"?>
<!DOCTYPE svg PUBLIC "-//W3C//DTD SVG 20010904//EN"
 "http://www.w3.org/TR/2001/REC-SVG-20010904/DTD/svg10.dtd">
<svg version="1.0" xmlns="http://www.w3.org/2000/svg"
 width="555.170999pt" height="187.259170pt" viewBox="0 0 555.170999 187.259170"
 preserveAspectRatio="xMidYMid meet">
<metadata>
Created by potrace 1.12, written by Peter Selinger 2001-2015
</metadata>
<g transform="translate(-49.823450,196.000000) scale(0.100000,-0.100000)"
fill="#000000" stroke="none">
<path d="M4463 1938 c-28 -31 -44 -93 -32 -125 25 -66 0 -99 -102 -132 -58
-19 -76 -32 -147 -104 -107 -109 -123 -131 -133 -183 -11 -56 -4 -72 25 -67
18 4 28 -3 44 -29 32 -51 137 -148 161 -148 19 0 21 -6 21 -75 0 -79 12 -177
37 -287 8 -37 11 -73 7 -80 -4 -7 -9 -21 -10 -32 -1 -12 -9 -55 -17 -96 -21
-98 -33 -325 -19 -334 6 -3 8 -23 5 -46 -5 -33 -3 -40 11 -40 10 0 25 -7 34
-16 12 -13 29 -15 75 -11 67 6 75 10 57 32 -11 13 -8 15 23 15 87 0 111 40 36
60 -27 8 -43 20 -54 40 -18 35 -18 36 -6 230 12 180 18 229 31 245 20 24 60
205 67 298 13 196 22 101 16 -175 -5 -307 10 -612 33 -649 2 -4 -3 -14 -11
-23 -18 -17 -13 -22 36 -31 31 -6 35 -10 31 -31 -4 -23 -2 -24 41 -24 71 0 72
3 74 303 2 248 19 427 42 450 5 5 9 -35 10 -89 2 -91 14 -184 26 -204 3 -5 0
-18 -6 -28 -9 -15 -6 -36 14 -106 14 -48 24 -93 21 -101 -3 -7 -1 -22 5 -32
11 -22 5 -35 -26 -52 -13 -6 -23 -20 -23 -30 0 -31 96 -44 119 -17 7 8 20 12
30 9 10 -2 25 3 34 11 28 29 30 17 10 -57 -4 -16 2 -18 54 -15 l58 3 8 40 c10
51 9 138 -2 167 -5 14 -5 48 1 83 8 42 7 86 -1 151 -13 105 -14 248 -4 320 l7
49 8 -45 c6 -40 38 -304 38 -322 0 -4 15 -10 34 -13 42 -8 45 -17 53 -167 5
-106 4 -122 -17 -175 -12 -32 -32 -66 -44 -77 -11 -10 -20 -22 -19 -27 2 -5
-2 -20 -7 -35 l-10 -27 50 5 c56 6 82 26 94 71 6 26 26 38 26 17 0 -5 7 -10
16 -10 8 0 12 5 9 10 -3 6 1 10 9 10 8 0 32 12 53 26 35 24 38 24 50 8 12 -16
13 -16 13 -2 0 9 5 20 11 24 7 4 9 0 6 -12 -3 -11 -9 -36 -13 -56 -6 -38 -6
-38 29 -38 19 0 39 6 45 13 6 7 13 56 15 110 2 53 9 102 15 109 17 22 31 156
30 293 -1 125 12 215 32 215 9 0 16 -29 25 -110 7 -67 62 -365 74 -401 13 -42
-46 -99 -105 -99 -23 0 -53 -23 -54 -41 -1 -18 65 -31 123 -26 82 8 96 -1 67
-41 -12 -16 -19 -35 -16 -41 11 -18 120 -13 154 6 28 16 29 19 41 137 14 147
14 243 1 356 -16 138 -14 399 3 440 11 25 14 55 10 102 -4 50 -2 76 11 102 11
24 16 62 16 133 0 137 -9 164 -73 210 -29 21 -53 41 -55 45 -2 5 -12 8 -22 8
-20 0 -32 40 -19 62 15 23 10 95 -9 118 -26 32 -93 39 -121 11 -32 -32 -30
-132 4 -195 23 -44 24 -49 10 -79 -8 -18 -20 -41 -27 -52 -7 -11 -14 -22 -15
-24 -1 -2 -16 9 -32 25 -16 16 -39 38 -50 48 -17 16 -19 22 -8 35 38 49 50
107 22 117 -8 4 -15 14 -15 24 0 25 -54 68 -95 76 -47 9 -79 -13 -101 -71 -24
-64 -11 -134 28 -153 33 -15 28 -36 -13 -57 -36 -19 -38 -19 -38 3 -1 63 -19
163 -34 185 -28 43 -94 48 -132 11 -13 -13 -16 -34 -13 -110 2 -67 7 -94 16
-94 21 0 13 -19 -15 -37 -22 -15 -27 -15 -31 -3 -9 27 -48 57 -97 75 -28 10
-58 27 -67 38 -20 21 -24 62 -8 72 17 11 0 107 -23 133 -33 36 -109 24 -123
-20 -12 -39 -6 -101 14 -143 16 -30 17 -44 9 -62 -11 -25 -114 -86 -128 -77
-12 7 -11 41 1 49 7 4 9 24 5 48 -3 23 -7 59 -9 79 -1 21 -4 39 -7 40 -42 27
-50 28 -83 14 -44 -18 -49 -28 -54 -103 -3 -57 -1 -67 27 -108 17 -25 31 -50
31 -56 0 -11 -37 -49 -49 -49 -4 0 -11 28 -14 62 -4 47 -12 70 -36 102 -17 23
-38 56 -48 74 -17 32 -16 34 11 85 27 52 39 139 22 165 -8 13 -71 42 -90 42
-7 0 -22 -10 -33 -22z m-209 -543 c3 -31 15 -79 26 -108 25 -64 25 -67 1 -67
-22 0 -79 72 -87 110 -3 14 -9 35 -14 48 -7 17 -6 22 5 22 8 0 22 11 32 25 10
13 21 25 24 25 3 0 9 -25 13 -55z m361 -194 c-3 -12 -10 -21 -14 -21 -7 0 -8
14 -2 55 0 5 6 4 12 -2 6 -6 8 -20 4 -32z m935 -518 c-1 -76 2 -189 7 -251 5
-67 4 -120 -1 -130 -8 -14 -10 -14 -17 3 -10 27 -11 83 -1 89 4 2 4 42 -1 88
-14 143 -9 338 9 338 3 0 5 -62 4 -137z m-503 -170 c0 -112 -2 -126 -8 -73 -4
36 -10 121 -13 190 -5 118 -5 122 8 73 8 -32 13 -105 13 -190z m394 -137 c5
-6 9 -21 9 -35 -1 -33 -25 -78 -34 -63 -15 25 -18 109 -5 152 l14 45 3 -45 c2
-25 7 -49 13 -54z"/>
<path d="M3435 1890 c-33 -19 -52 -25 -56 -18 -6 10 -25 -7 -67 -57 -12 -15
-62 -126 -62 -138 0 -40 -122 -51 -172 -16 -24 17 -38 20 -71 15 -102 -17
-137 -18 -137 -7 0 6 7 14 15 17 16 7 20 39 6 49 -5 3 -12 19 -16 36 -4 19
-16 34 -31 39 -13 5 -29 21 -36 35 -14 31 -38 32 -94 4 -32 -15 -46 -29 -54
-55 -21 -61 7 -132 60 -154 17 -7 30 -16 30 -20 0 -11 -42 -43 -102 -81 -41
-25 -48 -33 -48 -61 0 -22 -10 -43 -29 -64 -45 -50 -69 -63 -99 -54 -45 14
-166 61 -177 69 -5 5 -20 11 -33 14 -17 4 -22 2 -18 -8 6 -15 -22 -25 -79 -25
-40 -1 -40 -1 -15 -15 14 -8 52 -14 86 -15 33 0 63 -3 67 -6 3 -3 1 -18 -4
-32 -6 -15 -6 -29 -1 -34 5 -5 56 -25 113 -44 l104 -35 55 27 c30 14 69 37 85
49 29 22 32 22 52 5 21 -17 40 -67 62 -165 21 -94 23 -160 10 -270 -7 -60 -13
-140 -15 -176 -1 -36 -6 -81 -12 -100 -6 -19 -13 -79 -16 -134 -4 -62 -12
-108 -22 -123 -8 -12 -14 -28 -13 -35 5 -28 -49 -107 -80 -118 -5 -2 -11 -13
-13 -24 -3 -18 2 -20 52 -19 59 1 100 9 110 21 14 17 92 278 129 434 22 91 46
181 55 200 9 19 21 54 27 79 11 43 12 44 21 20 5 -14 21 -81 34 -150 14 -69
34 -144 45 -167 18 -36 19 -56 15 -175 -3 -73 -8 -154 -12 -180 -6 -45 -5 -47
20 -54 15 -3 31 -15 37 -25 7 -14 21 -19 54 -19 52 0 60 18 25 55 -12 12 -23
35 -26 51 -3 16 -7 36 -10 45 -2 9 2 35 11 58 8 24 19 86 25 140 5 53 12 121
16 151 6 52 -8 143 -57 366 -7 29 -9 57 -5 63 4 6 0 45 -9 87 -9 42 -18 88
-20 103 -2 14 -14 53 -25 85 -16 45 -20 71 -15 108 l7 48 86 26 c100 30 132
47 132 72 0 10 17 52 38 94 l39 76 -26 19 -25 19 55 41 c93 69 109 102 24 53z"/>
<path d="M757 1842 c-10 -10 -17 -31 -17 -45 0 -15 -4 -27 -9 -27 -9 0 -8 -26
1 -50 4 -8 9 -32 13 -53 3 -21 12 -40 20 -43 15 -6 14 -21 -8 -134 -8 -41 -18
-123 -22 -182 -5 -91 -4 -111 11 -132 15 -25 15 -26 -2 -25 -11 0 -30 14 -43
30 -23 30 -24 34 -17 151 6 102 22 195 52 297 5 18 4 22 -5 17 -7 -4 -40 -15
-74 -24 l-61 -17 -27 -72 c-14 -40 -37 -89 -49 -110 -13 -22 -22 -54 -22 -76
1 -38 48 -143 81 -180 12 -14 17 -47 21 -125 5 -99 7 -108 27 -117 12 -5 25
-21 27 -35 29 -151 69 -549 59 -579 -3 -9 -19 -28 -35 -43 -16 -16 -26 -32
-23 -38 14 -22 125 -3 125 22 0 4 11 8 24 8 28 0 41 16 38 45 -1 16 0 16 8 -4
8 -18 6 -30 -10 -56 -11 -18 -20 -40 -20 -50 0 -16 7 -17 51 -12 64 8 85 26
92 80 4 23 11 62 16 87 6 25 10 164 11 310 l0 266 33 -3 c60 -6 62 0 50 143
l-11 128 43 56 c23 30 50 70 59 89 22 42 14 63 -60 162 -30 40 -54 78 -54 85
0 25 -31 42 -98 54 -89 15 -99 21 -84 55 21 45 15 121 -10 145 -27 25 -79 26
-101 2z m99 -301 c-9 -129 1 -177 50 -240 19 -24 34 -50 34 -57 0 -7 -15 -18
-34 -24 -19 -6 -51 -24 -72 -41 -44 -35 -66 -38 -35 -5 22 24 23 28 18 203 -2
98 -7 192 -10 208 -5 26 -1 33 21 47 15 9 29 17 31 17 2 1 0 -48 -3 -108z
m186 -198 c-10 -28 -10 -28 -11 12 -1 28 2 36 10 28 8 -8 8 -19 1 -40z m-423
-5 c0 -31 -3 -37 -8 -24 -7 18 -3 66 5 66 2 0 4 -19 3 -42z m372 -140 c8 -15
8 -18 0 -14 -6 4 -16 16 -22 28 -8 15 -8 18 0 14 6 -4 16 -16 22 -28z m-127
-612 c4 -24 2 -54 -3 -67 -5 -13 -13 -42 -17 -64 -5 -33 -8 -37 -14 -20 -10
24 -12 175 -3 228 l6 39 12 -36 c7 -20 16 -56 19 -80z"/>
</g>
</svg>
