<?xml version="1.0" encoding="UTF-8"?>
<!DOCTYPE svg PUBLIC "-//W3C//DTD SVG 1.1//EN" "http://www.w3.org/Graphics/SVG/1.1/DTD/svg11.dtd">
<!-- Creator: CorelDRAW X6 -->
<svg xmlns="http://www.w3.org/2000/svg" xml:space="preserve" width="279.4mm" height="215.9mm" version="1.1" style="shape-rendering:geometricPrecision; text-rendering:geometricPrecision; image-rendering:optimizeQuality; fill-rule:evenodd; clip-rule:evenodd"
viewBox="0 0 27940 21590"
 xmlns:xlink="http://www.w3.org/1999/xlink">
 <defs>
  <style type="text/css">
   <![CDATA[
    .str0 {stroke:#373435;stroke-width:7.62}
    .fil0 {fill:#FEFEFE}
   ]]>
  </style>
 </defs>
 <g id="Capa_x0020_1">
  <metadata id="CorelCorpID_0Corel-Layer"/>
  <path class="fil0 str0" d="M12898 8380c-116,67 -183,88 -198,64 -21,-35 -88,25 -236,201 -42,53 -219,445 -219,487 0,141 -430,180 -607,56 -85,-60 -134,-71 -250,-53 -360,60 -483,64 -483,25 0,-21 25,-49 53,-60 56,-25 71,-138 21,-173 -18,-11 -42,-67 -56,-127 -14,-67 -56,-120 -109,-138 -46,-18 -102,-74 -127,-123 -49,-109 -134,-113 -332,-14 -113,53 -162,102 -191,194 -74,215 25,466 212,543 60,25 106,56 106,71 0,39 -148,152 -360,286 -145,88 -169,116 -169,215 0,78 -35,152 -102,226 -159,176 -243,222 -349,191 -159,-49 -586,-215 -624,-243 -18,-18 -71,-39 -116,-49 -60,-14 -78,-7 -64,28 21,53 -78,88 -279,88 -141,4 -141,4 -53,53 49,28 183,49 303,53 116,0 222,11 236,21 11,11 4,64 -14,113 -21,53 -21,102 -4,120 18,18 198,88 399,155l367 123 194 -95c106,-49 243,-131 300,-173 102,-78 113,-78 183,-18 74,60 141,236 219,582 74,332 81,564 35,952 -25,212 -46,494 -53,621 -4,127 -21,286 -42,353 -21,67 -46,279 -56,473 -14,219 -42,381 -78,434 -28,42 -49,99 -46,123 18,99 -173,377 -282,416 -18,7 -39,46 -46,85 -11,64 7,71 183,67 208,-4 353,-32 388,-74 49,-60 325,-981 455,-1531 78,-321 162,-639 194,-706 32,-67 74,-191 95,-279 39,-152 42,-155 74,-71 18,49 74,286 120,529 49,243 120,508 159,589 64,127 67,198 53,617 -11,258 -28,543 -42,635 -21,159 -18,166 71,191 53,11 109,53 131,88 25,49 74,67 191,67 183,0 212,-64 88,-194 -42,-42 -81,-123 -92,-180 -11,-56 -25,-127 -35,-159 -7,-32 7,-123 39,-205 28,-85 67,-303 88,-494 18,-187 42,-427 56,-533 21,-183 -28,-504 -201,-1291 -25,-102 -32,-201 -18,-222 14,-21 0,-159 -32,-307 -32,-148 -64,-310 -71,-363 -7,-49 -49,-187 -88,-300 -56,-159 -71,-250 -53,-381l25 -169 303 -92c353,-106 466,-166 466,-254 0,-35 60,-183 134,-332l138 -268 -92 -67 -88 -67 194 -145c328,-243 385,-360 85,-187l0 0z"/>
 </g>
</svg>
