<?xml version="1.0" standalone="no"?>
<!DOCTYPE svg PUBLIC "-//W3C//DTD SVG 20010904//EN"
 "http://www.w3.org/TR/2001/REC-SVG-20010904/DTD/svg10.dtd">
<svg version="1.0" xmlns="http://www.w3.org/2000/svg"
 width="567.164606pt" height="744.662631pt" viewBox="0 0 567.164606 744.662631"
 preserveAspectRatio="xMidYMid meet">
<metadata>
Created by potrace 1.12, written by Peter Selinger 2001-2015
</metadata>
<g transform="translate(-33.593497,798.527488) scale(0.100000,-0.100000)"
fill="#000000" stroke="none">
<path d="M5960 7974 c-14 -8 -45 -23 -70 -34 -25 -11 -63 -37 -86 -58 -22 -20
-61 -47 -85 -59 -46 -23 -139 -63 -145 -63 -2 0 -10 16 -18 35 -21 50 -68 47
-81 -6 -9 -36 -49 -76 -84 -84 -22 -5 -35 -17 -50 -49 -12 -23 -21 -54 -21
-69 0 -29 -24 -47 -64 -47 -20 0 -27 -6 -31 -27 -3 -16 -15 -45 -25 -65 -11
-20 -20 -42 -20 -49 0 -6 -9 -30 -19 -53 -10 -23 -31 -70 -46 -106 -15 -36
-34 -72 -41 -81 -8 -8 -14 -20 -14 -25 0 -5 -8 -22 -17 -39 -9 -16 -19 -59
-24 -95 -5 -46 -12 -68 -25 -75 -10 -5 -37 -28 -61 -49 -36 -32 -55 -41 -111
-51 -37 -6 -78 -8 -92 -4 -14 4 -56 7 -95 8 -122 2 -254 26 -277 51 -12 12
-35 28 -52 35 -17 7 -49 30 -70 51 l-39 38 -88 -2 c-48 -2 -112 -9 -142 -17
-31 -8 -86 -19 -123 -25 -38 -6 -73 -15 -79 -20 -29 -24 -233 -38 -310 -21
-42 9 -37 46 12 86 61 49 103 98 103 119 0 10 -11 33 -24 50 -13 17 -26 41
-30 54 -4 12 -16 27 -27 32 -13 7 -19 21 -19 43 0 18 -7 42 -15 53 -8 11 -14
42 -15 75 0 70 -10 79 -105 95 -39 7 -75 31 -75 49 0 8 -14 25 -31 37 -18 13
-47 55 -70 99 -21 42 -45 79 -54 83 -33 12 -265 -39 -285 -63 -3 -4 -39 -24
-80 -45 -98 -51 -127 -73 -135 -105 -4 -14 -15 -35 -25 -46 -24 -27 -63 -185
-58 -232 12 -96 41 -231 56 -258 10 -16 40 -57 69 -91 40 -47 68 -68 120 -93
37 -17 75 -36 83 -41 8 -5 30 -16 48 -24 58 -26 41 -65 -77 -183 -36 -35 -76
-66 -90 -70 -14 -3 -50 -20 -79 -37 -30 -17 -69 -40 -88 -51 -19 -11 -62 -35
-97 -54 -34 -18 -71 -43 -83 -55 -11 -11 -32 -31 -47 -43 -17 -14 -27 -33 -28
-50 0 -16 -2 -50 -4 -78 -3 -27 -5 -73 -5 -101 1 -38 -4 -55 -20 -69 -11 -10
-20 -21 -20 -25 0 -4 -19 -28 -43 -53 -23 -25 -64 -72 -92 -104 -27 -32 -67
-72 -88 -88 -21 -17 -46 -37 -55 -46 -49 -46 -108 -61 -153 -38 -20 10 -59 21
-88 25 -28 4 -51 10 -51 14 0 5 -44 23 -97 40 -54 18 -107 38 -118 45 -11 6
-33 15 -50 19 -36 8 -124 41 -181 67 -23 11 -53 19 -68 19 -26 0 -116 53 -116
68 0 17 -61 42 -104 42 -26 0 -66 9 -92 22 -38 18 -47 19 -55 7 -13 -20 -11
-37 7 -64 14 -22 14 -24 -6 -35 -58 -31 -137 -41 -293 -39 -131 2 -160 0 -173
-13 -14 -14 -12 -17 23 -32 21 -9 45 -20 53 -25 8 -5 38 -20 67 -34 52 -25 53
-26 274 -21 237 5 270 0 309 -41 22 -23 22 -26 7 -57 -8 -18 -19 -46 -23 -63
-4 -16 -12 -41 -19 -55 -27 -55 -27 -67 1 -93 15 -14 41 -28 59 -31 17 -4 49
-15 70 -26 22 -11 47 -20 56 -20 9 0 22 -6 28 -14 7 -8 28 -17 49 -21 20 -4
48 -13 62 -20 14 -7 52 -18 84 -24 32 -6 64 -15 70 -19 6 -5 32 -15 59 -22 26
-7 50 -16 52 -21 3 -4 31 -13 63 -19 31 -7 64 -18 72 -25 8 -7 46 -18 84 -24
38 -7 78 -17 88 -22 12 -6 28 -5 50 4 18 8 51 17 73 21 22 4 42 12 45 16 12
20 84 70 101 70 29 0 221 96 254 127 17 16 50 42 75 58 25 16 63 44 86 62 23
18 46 33 51 33 6 0 43 -29 83 -65 40 -36 76 -65 80 -65 4 0 13 -19 19 -42 7
-24 17 -47 21 -53 4 -5 13 -28 20 -50 7 -22 17 -45 22 -51 4 -7 12 -41 16 -76
5 -43 16 -74 30 -93 19 -24 22 -40 22 -122 0 -60 5 -104 14 -121 7 -15 17 -45
20 -67 4 -22 14 -50 21 -61 46 -71 81 -690 47 -814 -7 -25 -16 -140 -21 -256
-6 -164 -11 -217 -24 -240 -49 -88 -82 -491 -44 -544 20 -28 22 -82 5 -113 -6
-12 -17 -44 -24 -72 -7 -27 -20 -70 -28 -95 -39 -117 -48 -169 -51 -289 -7
-231 -17 -385 -30 -446 -14 -59 -31 -222 -27 -239 7 -25 -15 -74 -64 -138 -58
-77 -69 -122 -39 -165 13 -19 12 -24 -17 -64 -17 -24 -35 -61 -40 -84 -5 -24
-22 -54 -44 -75 -41 -42 -124 -149 -124 -161 0 -9 -61 -52 -111 -79 -36 -19
-51 -42 -72 -102 -14 -43 -14 -48 1 -61 37 -32 65 -37 214 -40 161 -2 170 0
283 54 28 13 50 17 73 13 20 -4 48 -1 76 10 35 14 45 23 55 54 7 21 12 47 11
58 -4 39 1 54 30 87 17 19 30 41 30 50 0 8 9 34 20 58 11 24 20 58 20 74 0 17
9 48 20 70 11 22 20 49 20 60 0 11 9 38 20 60 11 22 19 49 20 59 0 11 8 38 19
60 22 48 47 120 66 191 7 28 18 64 24 80 23 66 61 201 61 215 0 8 9 44 19 80
11 36 30 110 41 165 12 55 30 134 40 175 10 41 30 120 43 175 14 55 35 145 47
200 12 55 29 120 37 144 9 25 22 74 29 110 28 145 66 288 87 326 34 62 65 134
72 165 4 19 16 53 25 75 21 47 38 108 51 185 18 100 53 200 70 200 3 0 16 -30
29 -67 22 -66 31 -100 65 -248 9 -38 23 -92 30 -120 8 -27 19 -84 25 -125 6
-41 15 -91 20 -110 5 -19 14 -74 20 -122 6 -48 17 -105 25 -129 8 -23 15 -52
15 -65 0 -13 9 -52 19 -86 11 -35 24 -83 29 -108 36 -167 57 -218 125 -305 38
-48 39 -51 32 -110 -8 -77 -8 -78 4 -345 5 -124 13 -235 16 -246 7 -24 -19
-158 -42 -211 -12 -30 -23 -193 -22 -351 0 -38 -6 -73 -14 -85 -18 -28 -28
-180 -15 -218 5 -15 18 -31 28 -34 10 -3 28 -14 40 -25 15 -13 38 -20 62 -20
31 0 45 -6 69 -32 16 -18 33 -46 39 -63 10 -30 46 -55 99 -70 30 -9 219 -8
267 1 44 8 53 30 46 103 -5 57 -10 63 -120 158 -38 32 -65 112 -51 149 4 13 2
37 -6 60 -8 22 -14 59 -15 83 0 31 -7 51 -25 73 -34 40 -32 71 11 164 44 95
71 188 89 309 8 50 19 117 25 150 6 33 13 137 16 230 3 114 11 196 24 250 10
44 21 118 25 165 3 47 15 114 26 150 28 91 28 284 0 367 -11 32 -24 93 -30
136 -6 43 -16 88 -22 99 -6 11 -15 50 -20 87 -5 36 -16 95 -24 131 -14 61 -27
126 -60 300 -7 41 -18 98 -24 125 -6 28 -15 91 -20 140 -8 83 -21 133 -56 225
-8 19 -16 73 -18 119 -3 72 -1 86 16 101 22 21 20 82 -8 190 -30 118 -38 154
-50 240 -6 47 -19 110 -27 140 -9 30 -24 88 -33 127 -15 66 -15 75 -1 95 14
20 13 27 -24 97 -125 243 -183 500 -155 686 8 50 17 116 20 148 7 58 7 59 53
78 25 11 68 25 94 30 26 6 50 14 53 19 3 5 31 14 63 20 31 6 68 15 82 21 14 5
54 16 90 24 74 16 177 50 194 64 6 5 29 13 51 17 65 12 142 53 190 100 36 37
45 53 45 80 0 19 11 61 25 94 14 33 25 66 25 75 0 27 49 134 86 186 38 54 67
123 78 182 4 20 10 37 15 37 4 0 15 15 24 33 10 17 30 50 46 72 l30 40 -26 27
c-15 15 -36 31 -47 34 -28 9 -77 51 -97 83 -16 25 -16 28 7 64 14 21 45 50 70
65 72 43 139 86 154 100 8 8 44 30 80 51 80 46 201 181 197 220 -3 30 -14 33
-47 15z"/>
</g>
</svg>
